<svg xmlns="http://www.w3.org/2000/svg" viewBox="0 0 476.2 179"><defs><style>.cls-1{isolation:isolate;}.cls-2{fill:#ff0;}.cls-3,.cls-4{fill:#f0f;}.cls-3{mix-blend-mode:darken;}.cls-5{fill:red;}.cls-6{fill:aqua;}.cls-7{fill:lime;}.cls-8{fill:blue;}</style></defs><title>Asset 6</title><g class="cls-1"><g id="Layer_2" data-name="Layer 2"><g id="Layer_1-2" data-name="Layer 1"><path class="cls-2" d="M85.53,100.09v12.34a64.84,64.84,0,0,0,44.64,17.75c1.73,0,3.43-.09,5.12-.22A65,65,0,0,1,85.53,100.09Z"/><path class="cls-2" d="M205.51,113.9a65,65,0,0,0,19-2.85,65.1,65.1,0,0,1-13.92-20.67,64.25,64.25,0,0,1-5.11,9.68,64.94,64.94,0,0,0,8.81,11,65,65,0,0,1-19,2.85A65.08,65.08,0,0,0,260.37,179c1.72,0,3.42-.09,5.11-.22A65.07,65.07,0,0,1,205.51,113.9Z"/><path class="cls-2" d="M356.92,17.12l.42-.39c1.33-1.19,2.71-2.32,4.15-3.41.34-.26.67-.51,1-.76,1.24-.91,2.52-1.76,3.84-2.58.59-.38,1.19-.74,1.8-1.1,1.1-.63,2.22-1.24,3.37-1.82.91-.45,1.83-.88,2.75-1.3.54-.24,1-.53,1.59-.76s.84-.28,1.26-.44c1.16-.46,2.34-.87,3.52-1.26.81-.26,1.62-.53,2.43-.76,1.36-.39,2.73-.71,4.11-1,.65-.14,1.3-.3,2-.42,1.61-.3,3.24-.51,4.88-.69.4,0,.79-.1,1.19-.13l.58,0C394.21.13,392.62,0,391,0a.65.65,0,0,0-.14,0q-3,0-5.91.25c-.4,0-.79.09-1.19.13-1.64.18-3.27.39-4.89.69-.65.12-1.3.28-2,.42-1.37.3-2.74.62-4.1,1-.81.23-1.62.5-2.43.76-1.19.39-2.36.8-3.52,1.26-.42.16-.84.27-1.26.44s-1.05.52-1.59.76c-.93.42-1.84.85-2.75,1.3-1.15.58-2.27,1.19-3.37,1.82-.61.36-1.21.72-1.81,1.1-1.32.82-2.59,1.67-3.84,2.58-.34.25-.68.5-1,.76-1.44,1.09-2.82,2.22-4.15,3.41l-.42.39a64.91,64.91,0,0,0-11,13.05,63.87,63.87,0,0,1,5.11,9.73A65.34,65.34,0,0,1,356.92,17.12Z"/><path class="cls-2" d="M135.29.23C133.6.1,131.9,0,130.17,0A64.88,64.88,0,0,0,85.53,17.76V30.11A65,65,0,0,1,135.29.23Z"/><path class="cls-2" d="M265.48.22C263.79.09,262.09,0,260.37,0a65,65,0,0,0-54.88,30.12,64.25,64.25,0,0,1,5.11,9.68A65.11,65.11,0,0,1,265.48.22Z"/><path class="cls-2" d="M10.22,48.83V0H0V179a65,65,0,0,0,10.22-.81V48.83Z"/><path class="cls-2" d="M338.28,83.33a64.32,64.32,0,0,1-2.59-17.43,64.39,64.39,0,0,0-8.81,2A65.23,65.23,0,0,1,338.28,83.33Z"/><path class="cls-2" d="M455.74,64.94c0-1.93-.09-3.84-.27-5.75a65.58,65.58,0,0,1-27.32,11.08c1.7.27,3.41.47,5.11.61A65.45,65.45,0,0,0,455.74,64.94Z"/><path class="cls-2" d="M343.3,95.69a64.9,64.9,0,0,1,2.57,16.78A65.26,65.26,0,0,0,395.7,130,65,65,0,0,1,343.3,95.69Z"/><path class="cls-3" d="M395.7,130a64.57,64.57,0,0,0,10.22,0c-1.72-.13-3.43-.34-5.12-.61C399.1,129.64,397.4,129.84,395.7,130Z"/><path class="cls-3" d="M275.71.22C274,.09,272.32,0,270.59,0s-3.42.09-5.11.22c1.73.13,3.43.32,5.12.59C272.28.54,274,.35,275.71.22Z"/><path class="cls-4" d="M10.22,178.19V179a65.08,65.08,0,0,0,10.23-.81V175.7A63.37,63.37,0,0,1,10.22,178.19Z"/><path class="cls-3" d="M455.65,68.74A66.48,66.48,0,0,0,466,64.94c0-1.93-.1-3.84-.27-5.75a65.84,65.84,0,0,1-10,5.75C455.75,66.2,455.72,67.47,455.65,68.74Z"/><path class="cls-3" d="M404.25.42c.39,0,.79-.1,1.18-.13l.59,0C404.43.13,402.85,0,401.27,0a.75.75,0,0,0-.15,0c-1.78,0-3.56.07-5.33.21,1.75.13,3.5.32,5.24.59C402.1.68,403.17.54,404.25.42Z"/><path class="cls-3" d="M145.51.23C143.82.1,142.12,0,140.4,0S137,.1,135.29.23c1.72.14,3.43.33,5.11.59C142.08.56,143.79.37,145.51.23Z"/><path class="cls-3" d="M135.29,130c1.68.13,3.39.22,5.11.22s3.42-.09,5.11-.22c-1.72-.13-3.43-.32-5.11-.58C138.72,129.64,137,129.83,135.29,130Z"/><path class="cls-3" d="M265.48,178.76c1.69.13,3.39.22,5.11.22s3.43-.09,5.12-.22c-1.73-.13-3.43-.32-5.12-.59C268.91,178.44,267.21,178.63,265.48,178.76Z"/><path class="cls-5" d="M455.65,68.74c.07-1.27.1-2.54.09-3.8a65.45,65.45,0,0,1-22.48,5.94A65,65,0,0,0,455.65,68.74Z"/><path class="cls-5" d="M20.45,113.92V0H10.22V178.19a63.37,63.37,0,0,0,10.23-2.49Z"/><path class="cls-5" d="M85.54,65.1A65.09,65.09,0,0,1,140.4.82C138.72.56,137,.37,135.29.23A65,65,0,0,0,85.53,30.11v70A65,65,0,0,0,135.29,130c1.72-.13,3.43-.32,5.11-.58A65.1,65.1,0,0,1,85.54,65.1Z"/><path class="cls-5" d="M215.73,113.9a64.9,64.9,0,0,0,19-2.85A65.07,65.07,0,0,1,270.6.81c-1.69-.27-3.39-.46-5.12-.59A65.11,65.11,0,0,0,210.6,39.8a65.31,65.31,0,0,1,0,50.58,65.1,65.1,0,0,0,13.92,20.67,65,65,0,0,1-19,2.85,65.07,65.07,0,0,0,60,64.86c1.73-.13,3.43-.32,5.11-.59A65.09,65.09,0,0,1,215.73,113.9Z"/><path class="cls-5" d="M350.86,90.05a65.06,65.06,0,0,1,16.28-72.93l.43-.39c1.33-1.19,2.71-2.32,4.14-3.41l1-.76c1.24-.91,2.52-1.76,3.84-2.58.6-.38,1.2-.74,1.81-1.1,1.1-.63,2.22-1.24,3.37-1.82.9-.45,1.82-.88,2.75-1.3.53-.24,1-.53,1.59-.76s.84-.28,1.26-.44c1.16-.46,2.33-.87,3.52-1.26.81-.26,1.61-.53,2.43-.76,1.35-.39,2.72-.71,4.1-1,.65-.14,1.31-.3,2-.42L401,.84c-1.74-.27-3.49-.46-5.24-.59l-.58,0c-.4,0-.79.09-1.19.13-1.64.18-3.27.39-4.88.69-.66.12-1.31.28-2,.42-1.38.3-2.75.62-4.11,1-.81.23-1.62.5-2.43.76-1.18.39-2.36.8-3.52,1.26-.42.16-.84.27-1.26.44s-1.05.52-1.59.76c-.92.42-1.84.85-2.75,1.3-1.15.58-2.27,1.19-3.37,1.82-.61.36-1.21.72-1.8,1.1-1.32.82-2.6,1.67-3.84,2.58-.35.25-.68.5-1,.76-1.44,1.09-2.82,2.22-4.15,3.41l-.42.39A65.34,65.34,0,0,0,340.84,39.9a64.72,64.72,0,0,1,5.06,25.18,64.92,64.92,0,0,0-10.21.82,64.32,64.32,0,0,0,2.59,17.43,64.81,64.81,0,0,1,5,12.36A65,65,0,0,0,395.7,130c1.7-.13,3.4-.33,5.1-.61A64.92,64.92,0,0,1,350.86,90.05Z"/><path class="cls-6" d="M330.62,39.9a64.87,64.87,0,0,1,5.11-9.73A65,65,0,0,0,280.82,0c-1.72,0-3.42.09-5.11.22A65.11,65.11,0,0,1,330.62,39.9Z"/><path class="cls-6" d="M428.19,6.18a64.81,64.81,0,0,1,32.72,34.05l-60,24.84A64.63,64.63,0,0,0,423,70.88c1.71-.14,3.42-.34,5.11-.61a64.61,64.61,0,0,1-17-5.2l60-24.84a64.78,64.78,0,0,0-32.72-34l.08-.17a64.58,64.58,0,0,0-27-6,.65.65,0,0,0-.14,0c-1.79,0-3.56.07-5.33.21A64.33,64.33,0,0,1,428.27,6Z"/><path class="cls-6" d="M328.06,83.33a64.32,64.32,0,0,1-2.59-17.43,64.39,64.39,0,0,0-8.81,2A65.51,65.51,0,0,1,328.06,83.33Z"/><path class="cls-6" d="M200.38,39.8a64.25,64.25,0,0,1,5.11-9.68A65,65,0,0,0,150.62,0c-1.72,0-3.42.08-5.11.21A65.12,65.12,0,0,1,200.38,39.8Z"/><path class="cls-6" d="M75.31,100.09v13.83a65.09,65.09,0,0,1-54.86,64.27V179a65.08,65.08,0,0,0,65.08-65.08v-1.49A65.14,65.14,0,0,1,75.31,100.09Z"/><path class="cls-6" d="M145.51,130c1.69.13,3.39.22,5.11.22a65,65,0,0,0,54.88-30.12,64.25,64.25,0,0,1-5.11-9.68A65.11,65.11,0,0,1,145.51,130Z"/><path class="cls-6" d="M333.08,95.69a65.06,65.06,0,0,1-57.37,83.07c1.69.13,3.39.22,5.11.22A65.08,65.08,0,0,0,345.9,113.9c0-.48,0-1,0-1.43A64.16,64.16,0,0,1,333.08,95.69Z"/><path class="cls-6" d="M475.92,59.19A66.23,66.23,0,0,1,466,64.94a64.76,64.76,0,0,1-40.32,60.26l0,.08c-.45.18-.91.31-1.36.48-.81.31-1.63.59-2.45.87-1.33.46-2.66.89-4,1.26l-1.36.34c-1.71.43-3.42.8-5.14,1.09l-.26,0c-1.72.28-3.45.48-5.18.62a64.91,64.91,0,0,0,15.41-.62l.25,0c1.72-.29,3.43-.66,5.14-1.09l1.37-.34c1.34-.37,2.67-.8,4-1.26.82-.28,1.63-.56,2.44-.87.45-.17.91-.3,1.37-.48l0-.08a64.76,64.76,0,0,0,40.05-66Z"/><path class="cls-6" d="M85.53,17.76V0H75.31V30.11A65.52,65.52,0,0,1,85.53,17.76Z"/><path class="cls-7" d="M75.31,65.1a64.77,64.77,0,0,1,10.22-35V17.76A65.52,65.52,0,0,0,75.31,30.11v70a65.14,65.14,0,0,0,10.22,12.34V100.09A64.77,64.77,0,0,1,75.31,65.1Z"/><path class="cls-7" d="M205.51,65.08A64.91,64.91,0,0,1,210.6,39.8a64.25,64.25,0,0,0-5.11-9.68,64.25,64.25,0,0,0-5.11,9.68,65.31,65.31,0,0,1,0,50.58,64.25,64.25,0,0,0,5.11,9.68,64.25,64.25,0,0,0,5.11-9.68A65,65,0,0,1,205.51,65.08Z"/><path class="cls-7" d="M433.26,70.88c-1.7-.14-3.41-.34-5.11-.61-1.69.27-3.4.47-5.11.61A64.58,64.58,0,0,0,433.26,70.88Z"/><path class="cls-7" d="M340.64,90.05a65.44,65.44,0,0,1-2.36-6.72,65.23,65.23,0,0,0-11.4-15.41,64.39,64.39,0,0,1,8.81-2,65.23,65.23,0,0,1,5.15-26,63.87,63.87,0,0,0-5.11-9.73,64.87,64.87,0,0,0-5.11,9.73,64.72,64.72,0,0,1,5.06,25.18,64.73,64.73,0,0,0-10.21.82,64.32,64.32,0,0,0,2.59,17.43,64.81,64.81,0,0,1,5,12.36,64.16,64.16,0,0,0,12.79,16.78,64.9,64.9,0,0,0-2.57-16.78C342.34,93.87,341.44,92,340.64,90.05Z"/><path class="cls-8" d="M411.36,129.32c1.72-.29,3.43-.66,5.14-1.09l1.36-.34c1.35-.37,2.68-.8,4-1.26.82-.28,1.64-.56,2.45-.87.45-.17.91-.3,1.36-.48l0-.08A64.76,64.76,0,0,0,466,64.94a66.48,66.48,0,0,1-10.32,3.8,64.74,64.74,0,0,1-40.22,56.46l0,.08c-.45.18-.92.31-1.37.48-.81.31-1.62.59-2.44.87-1.33.46-2.67.89-4,1.26l-1.37.34c-1.71.43-3.42.8-5.14,1.09l-.25,0h-.08c1.69.27,3.4.48,5.12.61,1.73-.14,3.46-.34,5.18-.62Z"/><path class="cls-8" d="M335.68,113.9a65.1,65.1,0,0,0-2.6-18.21q-1.45-2.73-2.67-5.64a65.37,65.37,0,0,1-2.35-6.72,65.51,65.51,0,0,0-11.4-15.41,64.39,64.39,0,0,1,8.81-2,65.06,65.06,0,0,1,5.15-26A65.11,65.11,0,0,0,275.71.22c-1.73.13-3.43.32-5.11.59a65.08,65.08,0,0,1,54.85,64.27,65.21,65.21,0,0,0-19,2.84,65.09,65.09,0,0,1-35.85,110.25c1.69.27,3.39.46,5.12.59A65.07,65.07,0,0,0,335.68,113.9Z"/><path class="cls-8" d="M200.39,90.38a65.31,65.31,0,0,1,0-50.58A65.12,65.12,0,0,0,145.51.23c-1.72.14-3.43.33-5.11.59a65.09,65.09,0,0,1,0,128.56c1.68.26,3.39.45,5.11.58A65.11,65.11,0,0,0,200.39,90.38Z"/><path class="cls-8" d="M404.25.42c-1.08.12-2.15.26-3.22.42A64.18,64.18,0,0,1,418,6l-.08.17a64.78,64.78,0,0,1,32.72,34.05l-60,24.84A64.63,64.63,0,0,0,423,70.88a64.63,64.63,0,0,1-22.11-5.81l60-24.84a64.81,64.81,0,0,0-32.72-34l.08-.17A64.33,64.33,0,0,0,406,.25l-.59,0C405,.32,404.64.38,404.25.42Z"/><path class="cls-8" d="M75.31,113.92V100.09a65,65,0,0,1,0-70V0H65.08v113.9A65.09,65.09,0,0,1,20.45,175.7v2.49A65.09,65.09,0,0,0,75.31,113.92Z"/><path d="M200.39,90.38a65.31,65.31,0,0,0,0-50.58,65.31,65.31,0,0,0,0,50.58Z"/><path d="M20.45,113.92V175.7a65.09,65.09,0,0,0,44.63-61.78V0H20.45v113.9Z"/><path d="M333.08,95.69a64.81,64.81,0,0,0-5-12.36,65.37,65.37,0,0,0,2.35,6.72Q331.63,93,333.08,95.69Z"/><path d="M75.31,100.09v-70a65,65,0,0,0,0,70Z"/><path d="M433.26,70.88a64.58,64.58,0,0,1-10.22,0,64.63,64.63,0,0,1-32.33-5.81l60-24.84A64.78,64.78,0,0,0,418,6.18L418,6A64.18,64.18,0,0,0,401,.84l-1.67.27c-.65.12-1.31.28-2,.42-1.38.3-2.75.62-4.1,1-.82.23-1.62.5-2.43.76-1.19.39-2.36.8-3.52,1.26-.42.16-.85.27-1.26.44s-1.06.52-1.59.76c-.93.42-1.85.85-2.75,1.3-1.15.58-2.27,1.19-3.37,1.82-.61.36-1.21.72-1.81,1.1-1.32.82-2.6,1.67-3.84,2.58l-1,.76c-1.43,1.09-2.81,2.22-4.14,3.41l-.43.39A65,65,0,0,0,400.8,129.36h.08l.25,0c1.72-.29,3.43-.66,5.14-1.09l1.37-.34c1.34-.37,2.68-.8,4-1.26.82-.28,1.63-.56,2.44-.87.45-.17.92-.3,1.37-.48l0-.08a64.74,64.74,0,0,0,40.22-56.46A65,65,0,0,1,433.26,70.88Z"/><ellipse cx="140.4" cy="65.1" rx="54.86" ry="64.28"/><path d="M210.61,90.38a65.31,65.31,0,0,0,0-50.58,65.31,65.31,0,0,0,0,50.58Z"/><path d="M335.69,65.9a64.92,64.92,0,0,1,10.21-.82,64.72,64.72,0,0,0-5.06-25.18A65.23,65.23,0,0,0,335.69,65.9Z"/><path d="M325.47,65.9a64.73,64.73,0,0,1,10.21-.82,64.72,64.72,0,0,0-5.06-25.18A65.06,65.06,0,0,0,325.47,65.9Z"/><path d="M343.3,95.69a64.81,64.81,0,0,0-5-12.36,65.44,65.44,0,0,0,2.36,6.72C341.44,92,342.34,93.87,343.3,95.69Z"/><path d="M85.53,100.09v-70a65,65,0,0,0,0,70Z"/><path d="M215.73,65.08a64.86,64.86,0,0,0,19,46,64.9,64.9,0,0,1-19,2.85,65.09,65.09,0,0,0,54.86,64.27A65.09,65.09,0,0,0,306.44,67.92a65.21,65.21,0,0,1,19-2.84A65.08,65.08,0,0,0,270.6.81,65.09,65.09,0,0,0,215.73,65.08Z"/></g></g></g></svg>